<?xml version="1.0" standalone="no"?>
<!DOCTYPE svg PUBLIC "-//W3C//DTD SVG 20010904//EN"
 "http://www.w3.org/TR/2001/REC-SVG-20010904/DTD/svg10.dtd">
<svg version="1.0" xmlns="http://www.w3.org/2000/svg"
 width="3551.000000pt" height="1415.000000pt" viewBox="0 0 3551.000000 1415.000000"
 preserveAspectRatio="xMidYMid meet">

<g transform="translate(0.000000,1415.000000) scale(0.100000,-0.100000)"
fill="#000000" stroke="none">
<path d="M7295 14129 c-668 -61 -1283 -274 -1820 -630 -339 -225 -621 -481
-864 -784 -541 -673 -831 -1449 -866 -2315 -8 -186 -19 -258 -50 -326 -49
-110 -138 -173 -271 -195 -60 -10 -96 -9 -220 7 -178 22 -547 25 -694 6 -788
-105 -1477 -504 -1945 -1127 -349 -464 -542 -1015 -562 -1600 -26 -790 269
-1540 826 -2095 438 -437 980 -710 1606 -811 185 -29 539 -37 734 -15 174 19
238 20 312 2 121 -28 200 -103 240 -226 15 -48 24 -119 35 -275 22 -336 48
-527 105 -765 180 -756 543 -1369 1152 -1946 581 -551 1301 -886 2147 -1001
192 -26 705 -26 905 0 869 113 1552 426 2177 1000 248 228 448 464 887 1052
320 427 483 639 991 1290 223 286 617 790 874 1120 257 330 480 610 494 622
35 30 78 29 177 -3 65 -22 100 -27 185 -27 166 0 261 40 430 181 117 98 184
166 297 302 66 79 101 112 139 131 l51 26 2059 6 c1132 4 3012 8 4177 8 1997
1 2119 0 2137 -16 11 -10 31 -56 46 -103 41 -137 101 -212 209 -263 90 -43
144 -49 421 -49 364 0 471 20 562 104 62 57 90 104 133 226 l37 105 485 3
c266 1 515 -1 553 -5 64 -8 69 -10 88 -43 21 -34 21 -51 26 -755 l5 -720 318
-3 317 -2 0 -520 0 -520 -296 0 -295 0 -15 -35 c-12 -30 -14 -147 -12 -804 3
-753 3 -769 23 -791 11 -12 30 -26 42 -31 11 -4 707 -9 1545 -10 1654 -2 1568
-5 1595 52 7 15 13 42 13 60 2 326 -8 771 -19 809 -35 120 -110 224 -254 351
-206 181 -322 365 -389 618 -29 110 -36 372 -14 501 90 513 478 915 986 1020
134 28 344 30 472 6 450 -85 828 -417 962 -844 59 -188 72 -445 31 -632 -63
-288 -234 -567 -457 -746 -109 -87 -147 -125 -171 -169 -20 -38 -21 -61 -30
-477 -9 -416 -8 -439 9 -475 12 -23 33 -45 54 -55 33 -17 130 -18 1598 -18
l1562 0 -2 847 -3 847 -275 1 c-281 0 -296 2 -334 41 -14 14 -16 72 -16 505
l0 489 315 0 315 0 0 760 0 760 433 1 c237 0 578 4 757 9 287 7 334 10 405 29
214 59 395 193 503 372 32 53 72 165 87 244 26 134 38 442 32 823 -6 402 -17
548 -48 662 -74 274 -276 462 -585 548 l-99 27 -4515 -2 c-2483 -2 -4783 -6
-5111 -9 l-597 -6 -17 58 c-25 88 -87 213 -130 262 -49 56 -108 89 -191 107
-83 18 -591 21 -694 4 -175 -27 -296 -140 -331 -307 -7 -33 -22 -66 -39 -85
l-28 -32 -2149 -6 c-1181 -3 -3055 -8 -4163 -10 l-2015 -4 -57 23 c-70 28
-124 81 -168 164 -43 81 -206 245 -315 316 -191 125 -401 161 -623 106 -122
-30 -109 -41 -475 418 -334 420 -359 451 -1153 1468 -569 728 -847 1088 -1146
1485 -107 143 -238 310 -291 370 -114 132 -338 353 -462 456 -575 475 -1260
769 -2020 865 -144 18 -636 27 -780 13z m765 -44 c1000 -120 1873 -593 2522
-1366 30 -36 151 -193 268 -349 422 -560 1682 -2179 2313 -2970 252 -315 278
-344 331 -372 42 -21 55 -21 191 6 195 38 376 0 545 -114 101 -67 266 -234
302 -304 41 -80 110 -148 184 -177 l59 -24 3025 4 c1664 2 3540 7 4170 10
1103 6 1146 7 1173 25 35 23 54 59 68 128 34 162 151 259 336 278 118 13 530
12 618 -1 165 -23 251 -112 324 -335 l29 -89 3663 5 c6281 9 6530 8 6629 -13
362 -78 587 -309 629 -647 43 -337 40 -1109 -5 -1359 -52 -288 -262 -507 -573
-594 -74 -21 -95 -21 -843 -25 l-768 -3 0 -759 0 -760 -312 -2 -313 -3 -3
-509 c-2 -562 -5 -537 61 -573 28 -16 66 -18 300 -21 l267 -3 0 -808 0 -808
-232 -6 c-128 -4 -824 -7 -1546 -7 -1449 0 -1359 -4 -1381 62 -7 23 -8 164 -2
458 10 506 1 469 143 583 235 187 385 397 473 661 46 138 65 255 65 406 0 347
-121 641 -365 885 -185 186 -418 311 -672 362 -119 23 -347 23 -465 0 -375
-74 -683 -291 -874 -613 -135 -228 -201 -517 -175 -768 33 -324 166 -587 405
-798 147 -129 214 -215 257 -327 21 -54 22 -73 24 -463 1 -406 1 -408 -20
-428 -21 -20 -29 -20 -1558 -18 -1459 3 -1537 4 -1554 21 -17 17 -18 63 -21
776 -1 485 1 768 8 785 l10 26 300 0 300 0 -2 552 -3 553 -311 3 -311 2 -6
182 c-4 100 -7 413 -7 697 0 481 -2 519 -19 557 -10 22 -31 50 -46 62 -28 22
-28 22 -585 22 l-557 0 -18 -62 c-24 -88 -85 -216 -125 -261 -39 -45 -93 -75
-170 -95 -72 -18 -576 -29 -673 -14 -171 27 -286 132 -326 296 -18 72 -38 106
-74 120 -26 11 -805 12 -4197 7 l-4165 -6 -52 -23 c-54 -25 -95 -65 -242 -234
-153 -178 -348 -331 -467 -368 -97 -30 -235 -28 -348 5 -47 14 -105 25 -128
25 -36 0 -47 -6 -87 -47 -25 -27 -253 -313 -506 -638 -252 -324 -680 -873
-950 -1220 -270 -346 -633 -819 -806 -1050 -530 -705 -628 -824 -900 -1090
-621 -607 -1307 -935 -2209 -1057 -221 -30 -689 -32 -905 -5 -605 77 -1172
284 -1644 600 -234 156 -390 285 -607 501 -327 327 -563 653 -754 1041 -233
477 -348 939 -380 1530 -15 269 -47 375 -140 459 -109 99 -196 110 -560 76
-167 -16 -465 -7 -644 20 -413 62 -814 217 -1163 449 -184 123 -302 221 -468
392 -422 434 -675 962 -761 1589 -21 152 -24 527 -5 675 120 957 696 1767
1555 2190 350 172 660 257 1047 286 169 12 314 8 547 -18 234 -25 354 0 449
96 86 87 118 190 128 412 14 329 51 596 120 869 118 469 351 951 655 1355 663
882 1650 1421 2775 1514 156 13 575 5 735 -14z"/>
<path d="M7415 12924 c-369 -40 -659 -121 -960 -268 -293 -144 -521 -311 -750
-548 -635 -657 -887 -1567 -680 -2453 63 -270 190 -559 320 -728 l36 -47 147
148 c234 236 455 400 727 539 293 149 565 237 905 290 165 26 635 26 800 0
521 -81 979 -280 1370 -594 118 -95 311 -284 400 -392 41 -50 77 -91 80 -91
14 0 140 212 205 345 286 584 342 1269 154 1903 -128 431 -343 789 -673 1117
-217 216 -400 354 -636 478 -263 139 -559 236 -860 282 -101 16 -497 28 -585
19z m590 -53 c750 -113 1406 -537 1823 -1179 277 -425 415 -895 415 -1417 1
-216 -10 -329 -49 -525 -61 -304 -179 -602 -335 -845 l-51 -79 -20 24 c-114
144 -316 343 -475 468 -121 94 -334 226 -488 302 -412 202 -805 293 -1265 293
-582 0 -1120 -163 -1598 -484 -177 -118 -308 -227 -461 -383 -62 -63 -117
-113 -121 -111 -18 11 -101 148 -153 251 -100 199 -165 406 -208 658 -27 155
-37 511 -20 682 44 430 186 825 426 1184 114 171 198 274 340 415 215 215 422
364 700 500 297 147 602 233 930 264 148 14 457 5 610 -18z"/>
<path d="M11457 9876 c-9 -20 -26 -93 -36 -164 -120 -779 -446 -1463 -980
-2057 -45 -51 -76 -94 -83 -120 -8 -28 -12 -168 -11 -465 1 -500 -8 -459 129
-610 518 -573 826 -1220 955 -2008 18 -111 36 -202 40 -202 24 0 931 1165
1053 1352 78 120 108 189 155 362 82 300 137 585 167 866 20 196 15 619 -11
780 -69 443 -223 826 -469 1172 -41 57 -135 177 -211 268 -75 91 -251 312
-391 492 -141 180 -263 337 -272 349 -17 21 -18 21 -35 -15z m268 -335 c125
-161 304 -386 397 -500 337 -409 505 -714 613 -1106 119 -434 126 -938 20
-1509 -32 -175 -126 -544 -158 -623 -59 -145 -189 -326 -749 -1038 -361 -458
-355 -451 -360 -445 -2 3 -16 79 -31 170 -122 742 -443 1416 -936 1967 -154
172 -142 119 -141 616 0 233 4 437 9 455 5 17 46 73 91 124 540 610 859 1291
975 2077 16 108 22 128 35 114 4 -4 109 -140 235 -302z"/>
<path d="M7306 8685 c-674 -110 -1202 -608 -1345 -1268 -157 -726 206 -1473
876 -1802 114 -57 297 -117 428 -141 152 -29 462 -26 605 5 145 31 294 82 414
142 666 333 1021 1066 865 1786 -139 645 -624 1124 -1277 1264 -130 27 -436
35 -566 14z m454 -29 c362 -49 661 -197 921 -456 229 -228 361 -468 435 -785
39 -170 46 -435 16 -610 -73 -424 -319 -806 -677 -1047 -551 -371 -1258 -369
-1808 4 -115 78 -323 284 -402 397 -132 189 -227 424 -267 654 -17 105 -20
149 -15 312 7 259 42 409 147 633 296 626 963 989 1650 898z"/>
<path d="M2645 8684 c-391 -59 -687 -205 -951 -468 -321 -321 -478 -699 -477
-1151 0 -395 125 -741 379 -1046 318 -382 802 -596 1309 -576 529 20 998 283
1296 725 116 173 185 333 235 547 27 112 28 134 29 340 0 193 -3 233 -23 329
-140 651 -625 1137 -1277 1276 -78 17 -143 22 -295 25 -107 2 -208 1 -225 -1z
m507 -53 c303 -62 592 -214 811 -429 225 -220 396 -542 454 -854 25 -134 25
-437 -1 -573 -152 -817 -917 -1384 -1744 -1294 -687 74 -1253 584 -1393 1256
-57 274 -37 593 53 852 43 126 129 293 206 401 84 119 260 296 375 377 216
152 481 252 757 287 86 11 387 -4 482 -23z"/>
<path d="M9745 5299 c-84 -105 -303 -322 -415 -411 -332 -262 -671 -432 -1065
-533 -265 -68 -366 -79 -700 -80 -241 0 -323 4 -415 18 -316 50 -586 135 -861
272 -304 152 -542 327 -787 579 -67 69 -124 126 -126 126 -3 0 -34 -51 -70
-114 -162 -278 -267 -587 -323 -946 -22 -144 -25 -536 -5 -680 103 -728 462
-1329 1072 -1789 373 -282 782 -452 1255 -523 58 -8 180 -13 345 -13 217 1
274 4 384 23 575 99 1055 351 1476 772 151 152 233 252 352 430 202 303 345
681 404 1065 27 170 27 610 1 775 -40 254 -116 504 -217 715 -53 110 -163 288
-222 359 l-24 28 -59 -73z m115 -51 c192 -273 314 -595 377 -993 25 -160 25
-562 -1 -740 -70 -493 -268 -938 -584 -1315 -113 -136 -320 -332 -458 -436
-369 -278 -755 -442 -1204 -511 -143 -22 -528 -25 -665 -5 -375 54 -727 178
-1035 366 -349 213 -708 566 -919 904 -283 454 -417 1011 -371 1542 21 242 76
493 155 706 40 107 146 329 195 407 l30 47 128 -128 c638 -641 1505 -943 2400
-836 531 63 1053 287 1464 626 105 88 323 305 392 391 21 26 40 47 42 47 2 0
26 -33 54 -72z"/>
</g>
</svg>
