<?xml version="1.0" encoding="UTF-8"?>
<!DOCTYPE svg PUBLIC "-//W3C//DTD SVG 1.1//EN" "http://www.w3.org/Graphics/SVG/1.1/DTD/svg11.dtd">
<svg xmlns="http://www.w3.org/2000/svg" version="1.1" width="858px" height="1076px" style="shape-rendering:geometricPrecision; text-rendering:geometricPrecision; image-rendering:optimizeQuality; fill-rule:evenodd; clip-rule:evenodd" xmlns:xlink="http://www.w3.org/1999/xlink">
<g><path style="opacity:0.952" fill="#000000" d="M 316.5,-0.5 C 319.5,-0.5 322.5,-0.5 325.5,-0.5C 327.741,0.620727 330.075,1.78739 332.5,3C 505.333,177.167 678.833,350.667 853,523.5C 854.524,525.898 856.024,528.231 857.5,530.5C 857.5,534.167 857.5,537.833 857.5,541.5C 855.584,544.598 853.417,547.598 851,550.5C 675.299,725.368 499.799,900.368 324.5,1075.5C 323.833,1075.5 323.167,1075.5 322.5,1075.5C 315.944,1071.57 312.277,1065.74 311.5,1058C 312.325,991.184 312.825,924.351 313,857.5C 314.109,853.281 315.775,849.281 318,845.5C 420.41,742.091 522.91,639.257 625.5,537C 523.694,434.194 421.527,331.694 319,229.5C 314.183,221.909 311.683,213.575 311.5,204.5C 312.833,141.167 312.833,77.8333 311.5,14.5C 312.186,9.10758 313.853,4.10758 316.5,-0.5 Z M 328.5,22.5 C 499.812,193.146 670.812,364.146 841.5,535.5C 671.208,707.292 500.374,878.626 329,1049.5C 327.483,987.841 327.15,926.175 328,864.5C 328.483,860.533 329.816,856.866 332,853.5C 433.667,751.833 535.333,650.167 637,548.5C 642.534,541.42 642.867,534.087 638,526.5C 537.667,424.833 436.667,323.833 335,223.5C 330.872,219.362 328.538,214.362 328,208.5C 327.833,195 327.667,181.5 327.5,168C 328.27,119.495 328.604,70.9948 328.5,22.5 Z"/></g>
<g><path style="opacity:0.942" fill="#000000" d="M -0.5,113.5 C 6.604,113.182 13.2707,114.682 19.5,118C 153.946,252.446 288.446,386.946 423,521.5C 430.333,531.167 430.333,540.833 423,550.5C 287.833,684.333 153.333,818.833 19.5,954C 14.6158,957.11 9.28248,958.444 3.5,958C 2.24323,954.709 0.909899,951.542 -0.5,948.5C -0.5,879.167 -0.5,809.833 -0.5,740.5C 0.95406,737.592 2.45406,734.592 4,731.5C 69.0417,666.959 133.542,601.959 197.5,536.5C 134.514,473.014 71.347,409.68 8,346.5C 3.90197,341.01 1.06864,335.01 -0.5,328.5C -0.5,256.833 -0.5,185.167 -0.5,113.5 Z M 15.5,137.5 C 148.659,269.826 281.326,402.659 413.5,536C 281.361,669.139 148.861,801.973 16,934.5C 15.3333,870.833 15.3333,807.167 16,743.5C 17,741.833 18,740.167 19,738.5C 82.6667,674.833 146.333,611.167 210,547.5C 214.907,539.581 214.574,531.915 209,524.5C 146,461.5 83,398.5 20,335.5C 19,333.833 18,332.167 17,330.5C 15.5107,266.225 15.0107,201.892 15.5,137.5 Z"/></g>
</svg>
