<?xml version="1.0" encoding="UTF-8"?>
<!DOCTYPE svg PUBLIC "-//W3C//DTD SVG 1.1//EN" "http://www.w3.org/Graphics/SVG/1.1/DTD/svg11.dtd">
<svg xmlns="http://www.w3.org/2000/svg" version="1.1" width="529px" height="980px" style="shape-rendering:geometricPrecision; text-rendering:geometricPrecision; image-rendering:optimizeQuality; fill-rule:evenodd; clip-rule:evenodd" xmlns:xlink="http://www.w3.org/1999/xlink">
<g><path style="opacity:0.937" fill="#000000" d="M 35.5,-0.5 C 38.5,-0.5 41.5,-0.5 44.5,-0.5C 51.448,0.876511 58.1147,3.37651 64.5,7C 73.6752,13.0873 82.6752,19.4207 91.5,26C 113.331,44.6852 134.498,64.1852 155,84.5C 160.363,92.3448 160.697,100.345 156,108.5C 137.586,140.997 118.919,173.33 100,205.5C 69.3333,162.167 38.6667,118.833 8,75.5C 3.27179,65.9048 0.438458,55.9048 -0.5,45.5C -0.5,43.5 -0.5,41.5 -0.5,39.5C 2.02041,17.6458 14.0204,4.31245 35.5,-0.5 Z M 35.5,15.5 C 40.7046,15.1336 45.7046,15.9669 50.5,18C 59.3421,22.5848 67.6755,27.9181 75.5,34C 92.0208,48.0978 108.354,62.4312 124.5,77C 131.385,83.3823 137.718,90.2156 143.5,97.5C 129.005,123.827 114.005,149.827 98.5,175.5C 71.5948,138.692 45.4281,101.358 20,63.5C 15.9308,53.7669 14.9308,43.7669 17,33.5C 20.4159,24.5829 26.5826,18.5829 35.5,15.5 Z"/></g>
<g><path style="opacity:0.936" fill="#000000" d="M 528.5,476.5 C 528.5,480.5 528.5,484.5 528.5,488.5C 525.555,511.068 517.055,531.402 503,549.5C 496.574,558.016 489.907,566.349 483,574.5C 394.333,665.833 305.667,757.167 217,848.5C 208.525,857.064 199.859,865.397 191,873.5C 170.198,838.01 150.198,802.01 131,765.5C 129.561,757.479 131.227,750.146 136,743.5C 183,673.167 230,602.833 277,532.5C 286.338,517.811 290.671,501.811 290,484.5C 287.757,470.437 282.757,457.437 275,445.5C 225.16,374.659 174.16,304.659 122,235.5C 114.113,225.094 112.446,213.761 117,201.5C 134.621,166.592 151.954,131.592 169,96.5C 258.833,181 348.667,265.5 438.5,350C 462.13,372.292 484.297,395.792 505,420.5C 518.099,437.022 525.932,455.689 528.5,476.5 Z M 172.5,123.5 C 175.603,125.423 178.603,127.59 181.5,130C 272.636,215.468 363.469,301.301 454,387.5C 470.282,404.756 485.615,422.756 500,441.5C 516.628,469.097 516.628,496.764 500,524.5C 491.439,537.729 482.105,550.396 472,562.5C 379.667,657.5 287.333,752.5 195,847.5C 178.493,819.156 162.493,790.49 147,761.5C 146.333,760.167 146.333,758.833 147,757.5C 194.752,684.995 242.752,612.662 291,540.5C 300.201,524.897 305.368,508.064 306.5,490C 305.062,471.02 299.229,453.52 289,437.5C 238.556,365.614 186.89,294.614 134,224.5C 130.826,219.94 129.826,214.94 131,209.5C 145.662,181.178 159.495,152.511 172.5,123.5 Z"/></g>
<g><path style="opacity:0.937" fill="#000000" d="M 66.5,979.5 C 61.1667,979.5 55.8333,979.5 50.5,979.5C 31.9631,974.46 20.7965,962.46 17,943.5C 16.2608,937.442 16.5941,931.442 18,925.5C 22.6122,913.609 28.2789,902.276 35,891.5C 62.0068,851.485 89.5068,811.818 117.5,772.5C 139.399,803.949 160.565,835.949 181,868.5C 181.667,873.167 181.667,877.833 181,882.5C 178.72,886.447 176.053,890.113 173,893.5C 150.139,916.695 126.972,939.528 103.5,962C 92.1108,970.03 79.7774,975.863 66.5,979.5 Z M 116.5,800.5 C 133.763,824.837 150.43,849.67 166.5,875C 165.809,876.067 165.309,877.234 165,878.5C 141.139,902.695 116.972,926.528 92.5,950C 84.1715,955.664 75.1715,959.997 65.5,963C 45.973,965.077 34.973,956.411 32.5,937C 32.5031,932.99 33.3364,929.156 35,925.5C 39.158,916.515 43.8246,907.848 49,899.5C 71.52,866.442 94.02,833.442 116.5,800.5 Z"/></g>
</svg>
