<?xml version="1.0" encoding="UTF-8"?>
<!DOCTYPE svg PUBLIC "-//W3C//DTD SVG 1.1//EN" "http://www.w3.org/Graphics/SVG/1.1/DTD/svg11.dtd">
<svg xmlns="http://www.w3.org/2000/svg" version="1.1" width="436px" height="584px" style="shape-rendering:geometricPrecision; text-rendering:geometricPrecision; image-rendering:optimizeQuality; fill-rule:evenodd; clip-rule:evenodd" xmlns:xlink="http://www.w3.org/1999/xlink">
<g><path style="opacity:0.969" fill="#0c0d0c" d="M 6.5,-0.5 C 147.5,-0.5 288.5,-0.5 429.5,-0.5C 431.909,0.700688 433.909,2.36735 435.5,4.5C 435.5,16.1667 435.5,27.8333 435.5,39.5C 434.254,41.9015 432.254,43.4015 429.5,44C 405.493,44.1669 381.493,44.6669 357.5,45.5C 367.318,75.0293 365.818,104.029 353,132.5C 346.197,146.946 338.197,160.613 329,173.5C 307.424,201.654 286.09,229.988 265,258.5C 259.174,266.976 255.508,276.309 254,286.5C 253.824,299.642 257.491,311.642 265,322.5C 283.951,347.786 303.284,372.786 323,397.5C 338.665,418.828 350.665,442.161 359,467.5C 365.598,491.778 364.764,515.778 356.5,539.5C 381.502,539.333 406.502,539.5 431.5,540C 432.705,541.376 434.038,542.542 435.5,543.5C 435.5,555.5 435.5,567.5 435.5,579.5C 433.809,580.864 432.142,582.197 430.5,583.5C 288.5,583.5 146.5,583.5 4.5,583.5C 2.36735,581.909 0.700688,579.909 -0.5,577.5C -0.5,566.833 -0.5,556.167 -0.5,545.5C 0.584365,543.185 2.25103,541.352 4.5,540C 29.5067,539.833 54.5067,539.333 79.5,538.5C 69.0308,507.29 70.5308,476.623 84,446.5C 91.3211,431.183 99.6545,416.517 109,402.5C 129.333,376.167 149.667,349.833 170,323.5C 185.333,301.5 185.333,279.5 170,257.5C 149.333,230.167 128.667,202.833 108,175.5C 94.3433,156.814 83.6766,136.481 76,114.5C 69.3492,90.9973 70.1825,67.8306 78.5,45C 54.1667,44.6667 29.8333,44.3333 5.5,44C 2.97739,42.6403 0.977392,40.807 -0.5,38.5C -0.5,27.5 -0.5,16.5 -0.5,5.5C 1.24275,2.75333 3.57608,0.753325 6.5,-0.5 Z M 95.5,44.5 C 177.546,43.8378 259.379,44.5045 341,46.5C 352.666,78.5201 349.666,109.187 332,138.5C 327,146.5 322,154.5 317,162.5C 298.152,188.193 278.818,213.526 259,238.5C 251.701,248.763 245.701,259.763 241,271.5C 235.221,292.715 238.554,312.382 251,330.5C 270.234,357.07 290.234,383.07 311,408.5C 326.311,429.456 337.644,452.456 345,477.5C 349.936,498.8 347.769,519.3 338.5,539C 298.167,539.167 257.833,539.333 217.5,539.5C 176.788,539.497 136.288,538.83 96,537.5C 84.4856,509.601 85.1523,481.935 98,454.5C 103.985,441.19 110.985,428.523 119,416.5C 140.667,388.167 162.333,359.833 184,331.5C 201.999,304.158 201.999,276.825 184,249.5C 162.91,220.988 141.576,192.654 120,164.5C 110.134,150.776 101.801,136.11 95,120.5C 84.8414,95.0368 85.0081,69.7035 95.5,44.5 Z"/></g>
</svg>
