<?xml version="1.0" encoding="UTF-8"?>
<!DOCTYPE svg PUBLIC "-//W3C//DTD SVG 1.1//EN" "http://www.w3.org/Graphics/SVG/1.1/DTD/svg11.dtd">
<svg xmlns="http://www.w3.org/2000/svg" version="1.1" width="554px" height="902px" style="shape-rendering:geometricPrecision; text-rendering:geometricPrecision; image-rendering:optimizeQuality; fill-rule:evenodd; clip-rule:evenodd" xmlns:xlink="http://www.w3.org/1999/xlink">
<g><path style="opacity:0.981" fill="#000000" d="M 265.5,-0.5 C 272.833,-0.5 280.167,-0.5 287.5,-0.5C 342.503,16.4183 361.003,52.4183 343,107.5C 340.215,115.071 336.881,122.405 333,129.5C 323.342,152.686 330.842,166.519 355.5,171C 363.146,171.903 370.812,172.57 378.5,173C 436.832,173.5 495.166,173.667 553.5,173.5C 553.5,226.167 553.5,278.833 553.5,331.5C 552.793,344.378 551.793,357.378 550.5,370.5C 542.05,366.11 533.383,361.943 524.5,358C 476.538,340.451 435.372,350.284 401,387.5C 377.321,419.674 372.988,454.34 388,491.5C 413.303,538.565 452.469,557.398 505.5,548C 521.415,544.364 536.248,538.197 550,529.5C 551.753,547.934 552.92,566.267 553.5,584.5C 553.5,631.833 553.5,679.167 553.5,726.5C 498.832,726.333 444.166,726.5 389.5,727C 379.468,727.244 369.468,727.91 359.5,729C 349.246,729.745 340.413,733.578 333,740.5C 327.879,748.806 327.213,757.473 331,766.5C 338.046,780.639 343.713,795.306 348,810.5C 355.669,849.327 341.836,877.493 306.5,895C 299.598,897.915 292.598,900.081 285.5,901.5C 279.833,901.5 274.167,901.5 268.5,901.5C 239.995,895.835 219.495,879.835 207,853.5C 201.639,833.201 202.639,813.201 210,793.5C 213.725,784.382 217.725,775.382 222,766.5C 227.671,743.467 218.504,730.967 194.5,729C 182.856,727.973 171.189,727.306 159.5,727C 106.501,726.5 53.501,726.333 0.5,726.5C 0.333338,666.499 0.500005,606.499 1,546.5C 1.20585,540.728 2.03918,535.061 3.5,529.5C 36.9179,550.969 72.5846,555.802 110.5,544C 155.424,522.335 176.257,486.501 173,436.5C 166.412,400.251 146.579,374.084 113.5,358C 86.3516,347.135 59.0183,346.802 31.5,357C 21.4989,361.003 11.8322,365.503 2.5,370.5C 1.03408,335.696 0.0340777,301.029 -0.5,266.5C -0.5,247.5 -0.5,228.5 -0.5,209.5C 0.495077,197.678 0.82841,185.678 0.5,173.5C 60.8343,173.667 121.168,173.5 181.5,173C 193.18,172.996 204.18,170.33 214.5,165C 225.143,155.647 227.309,144.48 221,131.5C 214.09,118.102 208.756,104.102 205,89.5C 198.202,53.2722 210.702,26.1056 242.5,8C 250.023,4.44076 257.689,1.60742 265.5,-0.5 Z M 275.5,6.5 C 303.36,7.86474 324.194,20.8647 338,45.5C 341.71,54.1423 343.377,63.1423 343,72.5C 320.327,50.66 297.827,28.66 275.5,6.5 Z M 502.5,344.5 C 488.476,343.396 474.476,343.23 460.5,344C 378.64,261.14 296.473,178.64 214,96.5C 209.169,82.5729 208.669,68.5729 212.5,54.5C 309.521,150.854 406.188,247.521 502.5,344.5 Z M 179.5,179.5 C 181.527,179.338 183.527,179.505 185.5,180C 254.333,248.833 323.167,317.667 392,386.5C 387.149,395.196 382.482,404.196 378,413.5C 300.527,335.693 222.693,258.193 144.5,181C 156.341,180.831 168.007,180.331 179.5,179.5 Z M 6.5,180.5 C 15.5062,180.334 24.5062,180.5 33.5,181C 204.694,351.861 375.527,523.027 546,694.5C 546.5,703.16 546.666,711.827 546.5,720.5C 541.156,720.666 535.823,720.499 530.5,720C 356.553,544.93 182.053,370.43 7,196.5C 6.50065,191.177 6.33398,185.844 6.5,180.5 Z M 450.5,181.5 C 464.327,180.339 478.327,180.173 492.5,181C 510.333,198.833 528.167,216.667 546,234.5C 546.667,248.167 546.667,261.833 546,275.5C 514.604,243.603 482.77,212.269 450.5,181.5 Z M 6.5,307.5 C 19.6318,320.131 32.6318,332.965 45.5,346C 34.4626,348.57 23.7959,351.904 13.5,356C 11.6667,354.167 9.83333,352.333 8,350.5C 7.57508,336.161 7.07508,321.827 6.5,307.5 Z M 176.5,478.5 C 257.944,558.111 338.611,638.611 418.5,720C 404.833,720.667 391.167,720.667 377.5,720C 306.446,648.946 235.446,577.946 164.5,507C 170.009,498.147 174.009,488.647 176.5,478.5 Z M 542.5,541.5 C 544.117,542.589 544.95,544.256 545,546.5C 545.565,558.18 545.898,569.846 546,581.5C 536.319,571.986 526.819,562.319 517.5,552.5C 526.27,549.61 534.604,545.943 542.5,541.5 Z M 98.5,554.5 C 99.552,554.351 100.552,554.517 101.5,555C 177.973,632.473 254.806,709.639 332,786.5C 340.696,802.481 344.196,819.481 342.5,837.5C 249.04,744.874 156.04,651.707 63.5,558C 70.8333,557.667 78.1667,557.333 85.5,557C 90.0472,556.571 94.3805,555.738 98.5,554.5 Z M 6.5,613.5 C 41.9322,648.827 77.2655,684.327 112.5,720C 98.8333,720.667 85.1667,720.667 71.5,720C 50,698.5 28.5,677 7,655.5C 6.50009,641.504 6.33343,627.504 6.5,613.5 Z M 210.5,818.5 C 235.812,843.146 260.812,868.146 285.5,893.5C 258.184,895.594 236.351,885.594 220,863.5C 211.299,849.691 208.132,834.691 210.5,818.5 Z"/></g>
</svg>
