<?xml version="1.0" encoding="UTF-8"?>
<!DOCTYPE svg PUBLIC "-//W3C//DTD SVG 1.1//EN" "http://www.w3.org/Graphics/SVG/1.1/DTD/svg11.dtd">
<svg xmlns="http://www.w3.org/2000/svg" version="1.1" width="554px" height="902px" style="shape-rendering:geometricPrecision; text-rendering:geometricPrecision; image-rendering:optimizeQuality; fill-rule:evenodd; clip-rule:evenodd" xmlns:xlink="http://www.w3.org/1999/xlink">
<g><path style="opacity:0.869" fill="#000000" d="M 268.5,-0.5 C 274.167,-0.5 279.833,-0.5 285.5,-0.5C 319.814,5.97795 340.981,26.3113 349,60.5C 350.811,75.5827 349.145,90.2494 344,104.5C 340.275,113.618 336.275,122.618 332,131.5C 324.02,154.036 331.853,167.203 355.5,171C 363.477,171.932 371.477,172.598 379.5,173C 437.499,173.5 495.499,173.667 553.5,173.5C 553.5,223.167 553.5,272.833 553.5,322.5C 552.872,338.703 551.872,355.037 550.5,371.5C 518.067,350.289 483.233,344.955 446,355.5C 403.998,372.985 381.498,404.485 378.5,450C 380.897,492.353 400.897,523.02 438.5,542C 477.574,556.442 514.574,552.276 549.5,529.5C 550.932,533.013 551.765,536.68 552,540.5C 552.167,580.669 552.667,620.669 553.5,660.5C 553.5,682.5 553.5,704.5 553.5,726.5C 496.832,726.333 440.166,726.5 383.5,727C 374.803,727.298 366.136,727.965 357.5,729C 332.911,732.043 324.411,745.209 332,768.5C 339.651,783.452 345.317,799.119 349,815.5C 353.697,852.612 339.197,879.112 305.5,895C 298.315,898.122 290.982,900.289 283.5,901.5C 278.833,901.5 274.167,901.5 269.5,901.5C 240.446,896.287 219.612,880.287 207,853.5C 201.39,832.086 202.724,811.086 211,790.5C 214.333,783.167 217.667,775.833 221,768.5C 228.527,746.556 220.861,733.556 198,729.5C 186.54,728.152 175.04,727.319 163.5,727C 109.168,726.5 54.8344,726.333 0.5,726.5C 0.829252,711.99 0.495919,697.657 -0.5,683.5C -0.5,682.833 -0.5,682.167 -0.5,681.5C 0.833333,681.167 0.833333,680.833 -0.5,680.5C -0.5,679.5 -0.5,678.5 -0.5,677.5C 0.833333,677.167 0.833333,676.833 -0.5,676.5C -0.5,675.5 -0.5,674.5 -0.5,673.5C 0.332671,630.335 0.832671,587.002 1,543.5C 1.21664,538.708 2.04998,534.041 3.5,529.5C 38.4829,551.903 75.4829,556.07 114.5,542C 159.414,518.344 178.58,481.178 172,430.5C 161.193,386.693 133.693,360.193 89.5,351C 58.5484,347.404 29.8817,353.904 3.5,370.5C 2.7022,368.922 2.2022,367.256 2,365.5C 1.14292,350.676 0.309586,336.01 -0.5,321.5C -0.5,271.833 -0.5,222.167 -0.5,172.5C 56.1515,173.642 112.818,173.809 169.5,173C 178.85,172.568 188.184,171.901 197.5,171C 209.669,169.481 218.503,163.315 224,152.5C 224.839,147.079 224.506,141.746 223,136.5C 215.092,123.012 209.092,108.678 205,93.5C 197.508,52.9851 212.008,23.4851 248.5,5C 255.129,2.51261 261.796,0.679274 268.5,-0.5 Z M 267.5,6.5 C 272.179,6.33418 276.845,6.50085 281.5,7C 257.667,30.8333 233.833,54.6667 210,78.5C 209.2,49.926 221.033,28.426 245.5,14C 252.708,10.7647 260.042,8.2647 267.5,6.5 Z M 291.5,8.5 C 303.546,10.8555 313.88,16.3555 322.5,25C 290.652,58.348 257.985,90.848 224.5,122.5C 217.651,112.115 213.484,100.782 212,88.5C 238.702,61.9653 265.202,35.2987 291.5,8.5 Z M 327.5,31.5 C 336.434,41.0403 341.268,52.3736 342,65.5C 249.473,157.694 157.306,250.194 65.5,343C 45.3977,344.257 26.5644,349.757 9,359.5C 8.3861,357.121 8.05277,354.788 8,352.5C 64.8333,294.333 122.333,236.833 180.5,180C 191.416,179.409 202.083,177.409 212.5,174C 230.55,164.322 236.05,149.822 229,130.5C 262.702,98.2978 295.536,65.2978 327.5,31.5 Z M 342.5,77.5 C 340.313,95.2272 334.813,111.894 326,127.5C 323.879,132.982 322.546,138.649 322,144.5C 318.63,147.535 315.63,150.868 313,154.5C 246.833,219.333 181.333,284.833 116.5,351C 103.965,346.591 90.9647,343.758 77.5,342.5C 165.521,253.812 253.854,165.479 342.5,77.5 Z M 322.5,155.5 C 327.678,167.15 336.678,174.317 349.5,177C 283.527,242.64 217.86,308.64 152.5,375C 151.833,375.667 151.167,375.667 150.5,375C 142.404,367.568 133.737,360.901 124.5,355C 187.333,290.833 250.833,227.333 315,164.5C 317.335,161.335 319.835,158.335 322.5,155.5 Z M 359.5,178.5 C 374.817,179.518 390.151,180.351 405.5,181C 328.333,258.167 251.167,335.333 174,412.5C 169.361,401.549 164.028,391.216 158,381.5C 225.061,313.606 292.228,245.939 359.5,178.5 Z M 6.5,179.5 C 20.8372,179.333 35.1705,179.5 49.5,180C 35.6379,194.196 21.4713,208.029 7,221.5C 6.50009,207.504 6.33343,193.504 6.5,179.5 Z M 61.5,179.5 C 76.8088,180.269 92.1421,180.769 107.5,181C 74.0541,214.446 40.5541,247.946 7,281.5C 6.33333,265.5 6.33333,249.5 7,233.5C 25.6729,215.994 43.8396,197.994 61.5,179.5 Z M 165.5,179.5 C 166.552,179.351 167.552,179.517 168.5,180C 114.333,232.833 60.8333,286.333 8,340.5C 6.43192,324.873 6.09858,309.207 7,293.5C 44.5541,255.946 82.0541,218.446 119.5,181C 135.005,180.831 150.339,180.331 165.5,179.5 Z M 417.5,180.5 C 433.17,180.333 448.837,180.5 464.5,181C 369.306,275.861 274.473,371.027 180,466.5C 180.557,456.873 180.557,447.207 180,437.5C 178.93,431.835 178.263,426.168 178,420.5C 258.035,340.632 337.868,260.632 417.5,180.5 Z M 476.5,180.5 C 492.503,180.333 508.503,180.5 524.5,181C 352,353.5 179.5,526 7,698.5C 6.33333,682.5 6.33333,666.5 7,650.5C 40.1667,618.667 72.6667,586.167 104.5,553C 139.907,541.26 163.74,517.76 176,482.5C 276.007,381.659 376.174,280.993 476.5,180.5 Z M 536.5,180.5 C 539.833,180.5 543.167,180.5 546.5,180.5C 546.667,193.171 546.5,205.838 546,218.5C 379.806,385.694 213.306,552.527 46.5,719C 33.1708,719.5 19.8375,719.667 6.5,719.5C 6.33537,716.482 6.50204,713.482 7,710.5C 183.701,533.965 360.201,357.299 536.5,180.5 Z M 412.5,365.5 C 456.437,320.063 500.937,275.063 546,230.5C 546.667,246.5 546.667,262.5 546,278.5C 524.5,300 503,321.5 481.5,343C 455.868,342.823 432.868,350.323 412.5,365.5 Z M 545.5,290.5 C 546.661,306.328 546.828,322.328 546,338.5C 541,343.5 536,348.5 531,353.5C 518.964,348.366 506.464,344.866 493.5,343C 511.035,325.632 528.368,308.132 545.5,290.5 Z M 544.5,351.5 C 545.909,354.178 545.743,356.844 544,359.5C 542.581,358.54 541.081,357.707 539.5,357C 541.373,355.296 543.04,353.463 544.5,351.5 Z M 394.5,383.5 C 379.469,403.929 371.969,426.929 372,452.5C 283.167,541.333 194.333,630.167 105.5,719C 89.8333,719.667 74.1667,719.667 58.5,719C 164.806,611.694 271.473,504.694 378.5,398C 384.003,393.329 389.336,388.496 394.5,383.5 Z M 372.5,463.5 C 374.764,476.126 378.764,488.293 384.5,500C 311.167,573.333 237.833,646.667 164.5,720C 148.812,720.717 133.146,720.383 117.5,719C 202.701,633.965 287.701,548.799 372.5,463.5 Z M 388.5,507.5 C 394.473,516.987 401.806,525.487 410.5,533C 346.044,597.946 281.377,662.613 216.5,727C 211.657,725.537 206.657,724.204 201.5,723C 193.141,722.165 184.808,721.165 176.5,720C 247.368,649.299 318.035,578.465 388.5,507.5 Z M 225.5,776.5 C 230.859,765.51 232.026,754.177 229,742.5C 227.698,738.726 225.531,735.559 222.5,733C 254.028,701.806 285.195,670.306 316,638.5C 349.806,605.695 383.306,572.528 416.5,539C 426.645,544.565 437.312,549.399 448.5,553.5C 442.816,559.35 437.316,565.35 432,571.5C 362.939,639.728 294.106,708.061 225.5,776.5 Z M 8.5,540.5 C 16.7572,545.126 25.4239,548.959 34.5,552C 25.3333,561.167 16.1667,570.333 7,579.5C 6.30023,566.431 6.80023,553.431 8.5,540.5 Z M 352.5,722.5 C 409.09,664.349 466.423,606.849 524.5,550C 531.52,547.216 538.354,544.05 545,540.5C 546.372,552.473 546.706,564.473 546,576.5C 497.5,623.667 449.667,671.5 402.5,720C 385.782,720.094 369.115,720.927 352.5,722.5 Z M 43.5,554.5 C 58.4261,557.163 73.4261,557.996 88.5,557C 62,584.833 34.8333,612 7,638.5C 6.33333,622.833 6.33333,607.167 7,591.5C 19.3687,579.298 31.5353,566.965 43.5,554.5 Z M 505.5,554.5 C 506.239,554.369 506.906,554.536 507.5,555C 409.333,653.167 311.167,751.333 213,849.5C 208.11,832.172 209.11,815.172 216,798.5C 296.833,717.667 377.667,636.833 458.5,556C 465.94,556.698 473.44,557.198 481,557.5C 489.438,557.546 497.605,556.546 505.5,554.5 Z M 545.5,588.5 C 546.661,603.995 546.828,619.661 546,635.5C 517.833,663.667 489.667,691.833 461.5,720C 445.833,720.667 430.167,720.667 414.5,720C 457.701,675.633 501.367,631.799 545.5,588.5 Z M 545.5,647.5 C 546.661,663.328 546.828,679.328 546,695.5C 537.833,703.667 529.667,711.833 521.5,720C 505.5,720.667 489.5,720.667 473.5,720C 497.702,695.965 521.702,671.799 545.5,647.5 Z M 545.5,707.5 C 546.483,711.298 546.817,715.298 546.5,719.5C 542.204,720.463 537.871,720.629 533.5,720C 537.704,715.964 541.704,711.798 545.5,707.5 Z M 320.5,753.5 C 322.411,764.724 326.244,775.39 332,785.5C 332.667,786.833 332.667,788.167 332,789.5C 302.167,820.667 271.667,851.167 240.5,881C 239.5,881.667 238.5,881.667 237.5,881C 229.081,874.583 222.081,866.916 216.5,858C 251.422,823.245 286.089,788.411 320.5,753.5 Z M 335.5,797.5 C 336.497,797.47 337.164,797.97 337.5,799C 342.582,812.15 344.082,825.65 342,839.5C 324.113,857.387 306.279,875.221 288.5,893C 274.538,895.84 261.205,894.007 248.5,887.5C 247.479,886.998 247.312,886.332 248,885.5C 278.036,856.964 307.202,827.631 335.5,797.5 Z M 335.5,858.5 C 329.5,869.167 321.167,877.5 310.5,883.5C 318.446,874.887 326.779,866.554 335.5,858.5 Z"/></g>
</svg>
