<?xml version="1.0" encoding="UTF-8"?>
<!DOCTYPE svg PUBLIC "-//W3C//DTD SVG 1.1//EN" "http://www.w3.org/Graphics/SVG/1.1/DTD/svg11.dtd">
<svg xmlns="http://www.w3.org/2000/svg" version="1.1" width="554px" height="903px" style="shape-rendering:geometricPrecision; text-rendering:geometricPrecision; image-rendering:optimizeQuality; fill-rule:evenodd; clip-rule:evenodd" xmlns:xlink="http://www.w3.org/1999/xlink">
<g><path style="opacity:0.885" fill="#000000" d="M 268.5,-0.5 C 273.833,-0.5 279.167,-0.5 284.5,-0.5C 308.479,3.97985 327.313,16.3132 341,36.5C 350.051,53.9586 352.385,72.292 348,91.5C 344.065,105.704 338.732,119.371 332,132.5C 324.497,152.994 331.33,165.827 352.5,171C 358.803,171.942 365.137,172.609 371.5,173C 432.156,174.389 492.823,174.889 553.5,174.5C 553.5,227.833 553.5,281.167 553.5,334.5C 553.039,346.805 551.706,359.139 549.5,371.5C 517.191,350.622 482.524,345.456 445.5,356C 403.723,373.621 381.723,405.121 379.5,450.5C 381.026,493.399 401.026,524.233 439.5,543C 478.078,556.42 514.745,552.253 549.5,530.5C 550.281,531.729 550.781,533.062 551,534.5C 551.825,551.326 552.658,567.993 553.5,584.5C 553.5,632.167 553.5,679.833 553.5,727.5C 493.166,727.333 432.832,727.5 372.5,728C 360.596,728.38 349.262,731.046 338.5,736C 327.84,745.388 325.674,756.554 332,769.5C 342.512,788.536 348.679,808.869 350.5,830.5C 347.882,866.963 328.882,890.13 293.5,900C 263.911,905.285 239.078,896.785 219,874.5C 203.524,854.116 199.191,831.45 206,806.5C 209.827,793.686 214.827,781.352 221,769.5C 228.916,747.496 221.416,734.329 198.5,730C 191.193,729.05 183.86,728.383 176.5,728C 117.834,727.5 59.1676,727.333 0.5,727.5C 0.333338,667.499 0.500005,607.499 1,547.5C 1.33652,541.461 2.00318,535.461 3,529.5C 36.8703,551.624 73.037,556.458 111.5,544C 150.69,524.977 171.69,493.644 174.5,450C 170.67,402.313 146.336,370.313 101.5,354C 66.3338,346 33.6671,351.834 3.5,371.5C 1.93023,363.258 1.0969,354.925 1,346.5C 0.832328,317.33 0.332328,288.33 -0.5,259.5C -0.5,247.167 -0.5,234.833 -0.5,222.5C 0.496363,206.675 0.829697,190.675 0.5,174.5C 62.5083,174.84 124.508,174.34 186.5,173C 196.83,172.668 206.497,170.001 215.5,165C 223.9,157.465 226.4,148.298 223,137.5C 219,128.167 215,118.833 211,109.5C 203.114,90.3547 201.448,70.688 206,50.5C 217.706,22.2402 238.54,5.24024 268.5,-0.5 Z M 268.5,6.5 C 295.99,5.82933 317.824,16.496 334,38.5C 345.99,60.7426 346.657,83.4092 336,106.5C 332,115.833 328,125.167 324,134.5C 318.179,156.366 326.012,170.532 347.5,177C 356.088,178.657 364.755,179.657 373.5,180C 431.166,180.5 488.832,180.667 546.5,180.5C 546.947,239.851 546.447,299.184 545,358.5C 544.586,358.957 544.086,359.291 543.5,359.5C 504.819,339.302 465.819,338.469 426.5,357C 387.613,381.272 369.779,416.439 373,462.5C 378.066,498.834 396.232,526.334 427.5,545C 448.54,556.007 470.873,560.007 494.5,557C 512.09,555.247 528.59,550.081 544,541.5C 545.178,552.125 545.845,562.791 546,573.5C 546.5,622.499 546.667,671.499 546.5,720.5C 489.166,720.333 431.832,720.5 374.5,721C 360.526,721.327 347.193,724.327 334.5,730C 325.955,736.089 321.621,744.422 321.5,755C 321.986,761.413 323.486,767.58 326,773.5C 335.974,791.254 341.807,810.254 343.5,830.5C 341.838,859.002 327.838,878.835 301.5,890C 269.14,900.215 242.306,892.048 221,865.5C 211.137,850.519 207.804,834.185 211,816.5C 212.39,809.329 214.39,802.329 217,795.5C 221,786.167 225,776.833 229,767.5C 235.236,744.799 227.069,730.299 204.5,724C 193.898,722.34 183.231,721.34 172.5,721C 117.168,720.5 61.8343,720.333 6.5,720.5C 6.33334,667.832 6.50001,615.166 7,562.5C 7.33333,556.833 7.66667,551.167 8,545.5C 8.21893,544.062 8.71893,542.729 9.5,541.5C 39.2146,557.465 70.548,561.631 103.5,554C 146.996,539.162 172.496,508.995 180,463.5C 183.532,417.064 165.699,381.564 126.5,357C 99.8322,343 71.8322,339.667 42.5,347C 31.0162,349.884 20.0162,354.05 9.5,359.5C 7.86188,346.236 7.02855,332.903 7,319.5C 6.50001,273.168 6.33334,226.835 6.5,180.5C 66.1676,180.667 125.834,180.5 185.5,180C 196.765,179.615 207.431,176.948 217.5,172C 226.453,165.932 231.12,157.432 231.5,146.5C 231.069,139.913 229.569,133.58 227,127.5C 217.238,110.049 211.405,91.3821 209.5,71.5C 210.167,51.6664 218.167,35.4997 233.5,23C 243.962,14.7671 255.629,9.26709 268.5,6.5 Z M 270.5,36.5 C 285.236,35.9508 297.403,41.2842 307,52.5C 313.884,63.1234 315.218,74.4567 311,86.5C 306.886,98.0615 302.219,109.395 297,120.5C 285.912,151.335 293.079,176.835 318.5,197C 335.323,206.029 353.323,210.363 372.5,210C 420.499,210.5 468.499,210.667 516.5,210.5C 516.5,246.167 516.5,281.833 516.5,317.5C 457.271,304.63 408.437,321.297 370,367.5C 339.787,410.876 334.454,457.21 354,506.5C 379.418,558.722 421.251,585.722 479.5,587.5C 491.904,587.928 504.071,586.595 516,583.5C 516.5,619.165 516.667,654.832 516.5,690.5C 468.832,690.333 421.166,690.5 373.5,691C 360.627,691.701 347.96,693.701 335.5,697C 308.188,706.444 293.522,725.61 291.5,754.5C 291.932,761.627 293.099,768.627 295,775.5C 301.228,789.955 306.894,804.621 312,819.5C 316.11,834.24 312.277,846.407 300.5,856C 280.25,869.91 262.083,867.41 246,848.5C 240.125,839.583 238.458,829.916 241,819.5C 242.465,814.106 244.131,808.772 246,803.5C 254.887,788.338 260.054,772.004 261.5,754.5C 259.784,724.285 244.45,704.785 215.5,696C 206.981,693.735 198.315,692.402 189.5,692C 138.515,690.583 87.5147,690.083 36.5,690.5C 36.3333,654.832 36.5,619.165 37,583.5C 101.577,597.355 152.577,577.355 190,523.5C 213.462,483.123 216.796,441.123 200,397.5C 174.894,344.273 132.894,316.273 74,313.5C 61.348,313.548 48.848,314.882 36.5,317.5C 36.5624,281.775 36.5624,246.108 36.5,210.5C 86.5011,210.667 136.501,210.5 186.5,210C 211.997,210.297 233.164,201.13 250,182.5C 261.532,164.772 264.199,145.772 258,125.5C 254.551,115.935 250.551,106.601 246,97.5C 232.209,68.0011 240.375,47.6677 270.5,36.5 Z M 275.5,66.5 C 279.078,67.4265 281.745,69.4265 283.5,72.5C 282.43,79.2113 280.263,85.5446 277,91.5C 273.258,85.509 270.758,79.009 269.5,72C 271.282,69.94 273.282,68.1066 275.5,66.5 Z M 275.5,197.5 C 277.017,197.511 278.184,198.177 279,199.5C 293.621,218.575 312.787,230.742 336.5,236C 348.4,238.211 360.4,239.544 372.5,240C 410.499,240.5 448.499,240.667 486.5,240.5C 486.5,254.833 486.5,269.167 486.5,283.5C 428.639,282.519 381.805,304.519 346,349.5C 309.024,402.62 302.69,459.286 327,519.5C 352.832,573.007 394.999,605.174 453.5,616C 464.46,617.285 475.46,617.785 486.5,617.5C 486.5,631.833 486.5,646.167 486.5,660.5C 448.499,660.333 410.499,660.5 372.5,661C 347.131,661.269 323.464,667.602 301.5,680C 292.019,686.98 283.686,695.147 276.5,704.5C 261.515,683.325 241.182,670.158 215.5,665C 201.583,662.826 187.583,661.492 173.5,661C 137.835,660.5 102.168,660.333 66.5,660.5C 66.5,646.167 66.5,631.833 66.5,617.5C 126.582,618.874 174.415,595.541 210,547.5C 244.037,496.191 249.704,441.858 227,384.5C 200.782,329.304 157.615,296.138 97.5,285C 87.2034,283.774 76.87,283.274 66.5,283.5C 66.5,269.167 66.5,254.833 66.5,240.5C 106.835,240.667 147.168,240.5 187.5,240C 219.814,239.582 247.314,228.082 270,205.5C 272.054,202.953 273.887,200.286 275.5,197.5 Z M 275.5,240.5 C 296.624,255.826 320.291,264.993 346.5,268C 363.458,269.691 380.458,270.691 397.5,271C 335.531,301.409 298.031,350.576 285,418.5C 275.155,498.601 301.988,563.101 365.5,612C 375.342,618.757 385.675,624.757 396.5,630C 365.28,629.208 334.947,633.874 305.5,644C 295.473,648.718 285.973,654.218 277,660.5C 255.179,644.445 230.679,635.278 203.5,633C 187.848,631.79 172.181,630.79 156.5,630C 229.422,592.358 267.422,532.358 270.5,450C 267.602,377.519 235.936,321.519 175.5,282C 168.658,278.078 161.658,274.412 154.5,271C 179.47,271.73 204.137,269.397 228.5,264C 245.891,259.304 261.558,251.471 275.5,240.5 Z M 275.5,276.5 C 288.221,283.356 301.554,288.856 315.5,293C 300.001,309.829 286.834,328.329 276,348.5C 265.166,328.329 251.999,309.829 236.5,293C 250.283,289.135 263.283,283.635 275.5,276.5 Z M 275.5,553.5 C 281.618,563.038 287.784,572.704 294,582.5C 300.601,591.604 307.767,600.27 315.5,608.5C 302.284,612.856 289.451,618.189 277,624.5C 264.275,617.818 251.108,612.318 237.5,608C 253.512,592.133 266.179,573.966 275.5,553.5 Z M 275.5,810.5 C 276.75,810.577 277.583,811.244 278,812.5C 280.233,817.866 282.066,823.366 283.5,829C 280.882,834.928 276.882,835.928 271.5,832C 270.426,831.261 269.759,830.261 269.5,829C 270.812,822.578 272.812,816.411 275.5,810.5 Z"/></g>
<g><path style="opacity:0.882" fill="#000000" d="M 270.5,29.5 C 287.782,28.8913 301.948,35.2246 313,48.5C 319.737,59.3203 321.737,70.9869 319,83.5C 317.602,90.028 315.602,96.3613 313,102.5C 304.863,116.269 300.03,131.103 298.5,147C 300.708,173.873 314.708,191.206 340.5,199C 350.376,201.209 360.376,202.542 370.5,203C 421.489,204.357 472.489,204.857 523.5,204.5C 523.833,245.172 523.5,285.839 522.5,326.5C 466.142,310.903 418.309,324.57 379,367.5C 347.475,408.846 341.141,453.846 360,502.5C 379.059,543.887 410.892,569.387 455.5,579C 478.048,582.295 500.382,581.128 522.5,575.5C 523.447,616.154 523.78,656.821 523.5,697.5C 472.499,697.333 421.499,697.5 370.5,698C 352.564,698.382 335.897,703.049 320.5,712C 301.417,727.585 294.917,747.418 301,771.5C 307.839,786.845 313.839,802.511 319,818.5C 323.561,843.875 313.728,861.042 289.5,870C 269.438,874.312 252.938,868.479 240,852.5C 237.196,848.557 235.196,844.223 234,839.5C 233.169,831.112 233.503,822.779 235,814.5C 239.774,800.951 245.107,787.618 251,774.5C 259.94,738.208 246.773,714.042 211.5,702C 204.898,700.566 198.232,699.566 191.5,699C 137.85,697.564 84.1834,697.064 30.5,697.5C 30.5,656.833 30.5,616.167 30.5,575.5C 83.7719,589.976 129.939,577.976 169,539.5C 206.612,494.886 213.612,445.886 190,392.5C 161.314,341.212 117.481,317.379 58.5,321C 49.0947,321.816 39.928,323.65 31,326.5C 30.0046,285.827 29.8379,245.161 30.5,204.5C 83.1752,204.796 135.842,204.296 188.5,203C 210.647,202.838 229.147,194.671 244,178.5C 255.011,162.406 257.344,145.073 251,126.5C 245.107,113.382 239.774,100.049 235,86.5C 229.394,56.6109 241.228,37.6109 270.5,29.5 Z M 270.5,36.5 C 240.375,47.6677 232.209,68.0011 246,97.5C 250.551,106.601 254.551,115.935 258,125.5C 264.199,145.772 261.532,164.772 250,182.5C 233.164,201.13 211.997,210.297 186.5,210C 136.501,210.5 86.5011,210.667 36.5,210.5C 36.5624,246.108 36.5624,281.775 36.5,317.5C 48.848,314.882 61.348,313.548 74,313.5C 132.894,316.273 174.894,344.273 200,397.5C 216.796,441.123 213.462,483.123 190,523.5C 152.577,577.355 101.577,597.355 37,583.5C 36.5,619.165 36.3333,654.832 36.5,690.5C 87.5147,690.083 138.515,690.583 189.5,692C 198.315,692.402 206.981,693.735 215.5,696C 244.45,704.785 259.784,724.285 261.5,754.5C 260.054,772.004 254.887,788.338 246,803.5C 244.131,808.772 242.465,814.106 241,819.5C 238.458,829.916 240.125,839.583 246,848.5C 262.083,867.41 280.25,869.91 300.5,856C 312.277,846.407 316.11,834.24 312,819.5C 306.894,804.621 301.228,789.955 295,775.5C 293.099,768.627 291.932,761.627 291.5,754.5C 293.522,725.61 308.188,706.444 335.5,697C 347.96,693.701 360.627,691.701 373.5,691C 421.166,690.5 468.832,690.333 516.5,690.5C 516.667,654.832 516.5,619.165 516,583.5C 504.071,586.595 491.904,587.928 479.5,587.5C 421.251,585.722 379.418,558.722 354,506.5C 334.454,457.21 339.787,410.876 370,367.5C 408.437,321.297 457.271,304.63 516.5,317.5C 516.5,281.833 516.5,246.167 516.5,210.5C 468.499,210.667 420.499,210.5 372.5,210C 353.323,210.363 335.323,206.029 318.5,197C 293.079,176.835 285.912,151.335 297,120.5C 302.219,109.395 306.886,98.0615 311,86.5C 315.218,74.4567 313.884,63.1234 307,52.5C 297.403,41.2842 285.236,35.9508 270.5,36.5 Z M 275.5,66.5 C 273.282,68.1066 271.282,69.94 269.5,72C 270.758,79.009 273.258,85.509 277,91.5C 280.263,85.5446 282.43,79.2113 283.5,72.5C 281.745,69.4265 279.078,67.4265 275.5,66.5 Z M 275.5,197.5 C 273.887,200.286 272.054,202.953 270,205.5C 247.314,228.082 219.814,239.582 187.5,240C 147.168,240.5 106.835,240.667 66.5,240.5C 66.5,254.833 66.5,269.167 66.5,283.5C 76.87,283.274 87.2034,283.774 97.5,285C 157.615,296.138 200.782,329.304 227,384.5C 249.704,441.858 244.037,496.191 210,547.5C 174.415,595.541 126.582,618.874 66.5,617.5C 66.5,631.833 66.5,646.167 66.5,660.5C 102.168,660.333 137.835,660.5 173.5,661C 187.583,661.492 201.583,662.826 215.5,665C 241.182,670.158 261.515,683.325 276.5,704.5C 283.686,695.147 292.019,686.98 301.5,680C 323.464,667.602 347.131,661.269 372.5,661C 410.499,660.5 448.499,660.333 486.5,660.5C 486.5,646.167 486.5,631.833 486.5,617.5C 475.46,617.785 464.46,617.285 453.5,616C 394.999,605.174 352.832,573.007 327,519.5C 302.69,459.286 309.024,402.62 346,349.5C 381.805,304.519 428.639,282.519 486.5,283.5C 486.5,269.167 486.5,254.833 486.5,240.5C 448.499,240.667 410.499,240.5 372.5,240C 360.4,239.544 348.4,238.211 336.5,236C 312.787,230.742 293.621,218.575 279,199.5C 278.184,198.177 277.017,197.511 275.5,197.5 Z M 275.5,240.5 C 261.558,251.471 245.891,259.304 228.5,264C 204.137,269.397 179.47,271.73 154.5,271C 161.658,274.412 168.658,278.078 175.5,282C 235.936,321.519 267.602,377.519 270.5,450C 267.422,532.358 229.422,592.358 156.5,630C 172.181,630.79 187.848,631.79 203.5,633C 230.679,635.278 255.179,644.445 277,660.5C 285.973,654.218 295.473,648.718 305.5,644C 334.947,633.874 365.28,629.208 396.5,630C 385.675,624.757 375.342,618.757 365.5,612C 301.988,563.101 275.155,498.601 285,418.5C 298.031,350.576 335.531,301.409 397.5,271C 380.458,270.691 363.458,269.691 346.5,268C 320.291,264.993 296.624,255.826 275.5,240.5 Z M 275.5,276.5 C 263.283,283.635 250.283,289.135 236.5,293C 251.999,309.829 265.166,328.329 276,348.5C 286.834,328.329 300.001,309.829 315.5,293C 301.554,288.856 288.221,283.356 275.5,276.5 Z M 275.5,553.5 C 266.179,573.966 253.512,592.133 237.5,608C 251.108,612.318 264.275,617.818 277,624.5C 289.451,618.189 302.284,612.856 315.5,608.5C 307.767,600.27 300.601,591.604 294,582.5C 287.784,572.704 281.618,563.038 275.5,553.5 Z M 275.5,810.5 C 272.812,816.411 270.812,822.578 269.5,829C 269.759,830.261 270.426,831.261 271.5,832C 276.882,835.928 280.882,834.928 283.5,829C 282.066,823.366 280.233,817.866 278,812.5C 277.583,811.244 276.75,810.577 275.5,810.5 Z"/></g>
<g><path style="opacity:0.862" fill="#000000" d="M 274.5,59.5 C 280.289,59.811 285.122,62.1443 289,66.5C 290.452,73.2843 289.785,79.9509 287,86.5C 283.995,93.8443 280.495,100.844 276.5,107.5C 269.57,96.2103 264.903,84.0437 262.5,71C 262.934,68.6839 263.934,66.6839 265.5,65C 268.596,63.1282 271.596,61.2948 274.5,59.5 Z M 275.5,66.5 C 273.282,68.1066 271.282,69.94 269.5,72C 270.758,79.009 273.258,85.509 277,91.5C 280.263,85.5446 282.43,79.2113 283.5,72.5C 281.745,69.4265 279.078,67.4265 275.5,66.5 Z"/></g>
<g><path style="opacity:0.879" fill="#000000" d="M 275.5,183.5 C 276.496,183.414 277.329,183.748 278,184.5C 291.847,209.652 313.013,224.819 341.5,230C 360.067,232.659 378.733,233.992 397.5,234C 429.498,234.5 461.498,234.667 493.5,234.5C 493.5,253.167 493.5,271.833 493.5,290.5C 433.385,287.648 385.218,309.981 349,357.5C 316.214,406.461 310.548,458.461 332,513.5C 364.641,580.751 418.475,613.084 493.5,610.5C 493.5,629.5 493.5,648.5 493.5,667.5C 452.165,667.333 410.832,667.5 369.5,668C 345.268,668.637 322.934,675.304 302.5,688C 291.816,696.176 283.149,706.01 276.5,717.5C 262.603,693.359 241.936,678.193 214.5,672C 202.263,669.81 189.93,668.476 177.5,668C 138.501,667.5 99.5014,667.333 60.5,667.5C 60.5,648.5 60.5,629.5 60.5,610.5C 134.095,612.798 187.261,581.131 220,515.5C 247.106,445.027 233.606,383.527 179.5,331C 145.53,301.287 105.864,287.787 60.5,290.5C 60.5,271.833 60.5,253.167 60.5,234.5C 103.509,234.732 146.509,234.232 189.5,233C 218.585,232.204 243.418,221.704 264,201.5C 268.603,195.952 272.437,189.952 275.5,183.5 Z M 275.5,197.5 C 273.887,200.286 272.054,202.953 270,205.5C 247.314,228.082 219.814,239.582 187.5,240C 147.168,240.5 106.835,240.667 66.5,240.5C 66.5,254.833 66.5,269.167 66.5,283.5C 76.87,283.274 87.2034,283.774 97.5,285C 157.615,296.138 200.782,329.304 227,384.5C 249.704,441.858 244.037,496.191 210,547.5C 174.415,595.541 126.582,618.874 66.5,617.5C 66.5,631.833 66.5,646.167 66.5,660.5C 102.168,660.333 137.835,660.5 173.5,661C 187.583,661.492 201.583,662.826 215.5,665C 241.182,670.158 261.515,683.325 276.5,704.5C 283.686,695.147 292.019,686.98 301.5,680C 323.464,667.602 347.131,661.269 372.5,661C 410.499,660.5 448.499,660.333 486.5,660.5C 486.5,646.167 486.5,631.833 486.5,617.5C 475.46,617.785 464.46,617.285 453.5,616C 394.999,605.174 352.832,573.007 327,519.5C 302.69,459.286 309.024,402.62 346,349.5C 381.805,304.519 428.639,282.519 486.5,283.5C 486.5,269.167 486.5,254.833 486.5,240.5C 448.499,240.667 410.499,240.5 372.5,240C 360.4,239.544 348.4,238.211 336.5,236C 312.787,230.742 293.621,218.575 279,199.5C 278.184,198.177 277.017,197.511 275.5,197.5 Z M 275.5,240.5 C 261.558,251.471 245.891,259.304 228.5,264C 204.137,269.397 179.47,271.73 154.5,271C 161.658,274.412 168.658,278.078 175.5,282C 235.936,321.519 267.602,377.519 270.5,450C 267.422,532.358 229.422,592.358 156.5,630C 172.181,630.79 187.848,631.79 203.5,633C 230.679,635.278 255.179,644.445 277,660.5C 285.973,654.218 295.473,648.718 305.5,644C 334.947,633.874 365.28,629.208 396.5,630C 385.675,624.757 375.342,618.757 365.5,612C 301.988,563.101 275.155,498.601 285,418.5C 298.031,350.576 335.531,301.409 397.5,271C 380.458,270.691 363.458,269.691 346.5,268C 320.291,264.993 296.624,255.826 275.5,240.5 Z M 275.5,276.5 C 263.283,283.635 250.283,289.135 236.5,293C 251.999,309.829 265.166,328.329 276,348.5C 286.834,328.329 300.001,309.829 315.5,293C 301.554,288.856 288.221,283.356 275.5,276.5 Z M 275.5,553.5 C 266.179,573.966 253.512,592.133 237.5,608C 251.108,612.318 264.275,617.818 277,624.5C 289.451,618.189 302.284,612.856 315.5,608.5C 307.767,600.27 300.601,591.604 294,582.5C 287.784,572.704 281.618,563.038 275.5,553.5 Z"/></g>
<g><path style="opacity:0.865" fill="#000000" d="M 275.5,231.5 C 284.942,238.397 294.942,244.563 305.5,250C 325.629,258.426 346.629,262.759 368.5,263C 390.162,263.829 411.828,264.495 433.5,265C 355.175,289.153 307.842,341.32 291.5,421.5C 282.892,504.1 312.892,568.267 381.5,614C 398.128,623.315 415.461,630.982 433.5,637C 411.833,637.333 390.167,637.667 368.5,638C 334.415,638.631 303.915,649.131 277,669.5C 252.913,650.467 225.413,640.3 194.5,639C 169.841,638.017 145.174,637.184 120.5,636.5C 196.393,612.11 243.227,561.11 261,483.5C 271.088,399.854 241.254,334.687 171.5,288C 155.116,278.205 137.783,270.538 119.5,265C 143.497,264.231 167.497,263.564 191.5,263C 220.08,261.697 246.08,253.031 269.5,237C 271.396,234.932 273.396,233.099 275.5,231.5 Z M 275.5,240.5 C 261.558,251.471 245.891,259.304 228.5,264C 204.137,269.397 179.47,271.73 154.5,271C 161.658,274.412 168.658,278.078 175.5,282C 235.936,321.519 267.602,377.519 270.5,450C 267.422,532.358 229.422,592.358 156.5,630C 172.181,630.79 187.848,631.79 203.5,633C 230.679,635.278 255.179,644.445 277,660.5C 285.973,654.218 295.473,648.718 305.5,644C 334.947,633.874 365.28,629.208 396.5,630C 385.675,624.757 375.342,618.757 365.5,612C 301.988,563.101 275.155,498.601 285,418.5C 298.031,350.576 335.531,301.409 397.5,271C 380.458,270.691 363.458,269.691 346.5,268C 320.291,264.993 296.624,255.826 275.5,240.5 Z M 275.5,276.5 C 263.283,283.635 250.283,289.135 236.5,293C 251.999,309.829 265.166,328.329 276,348.5C 286.834,328.329 300.001,309.829 315.5,293C 301.554,288.856 288.221,283.356 275.5,276.5 Z M 275.5,553.5 C 266.179,573.966 253.512,592.133 237.5,608C 251.108,612.318 264.275,617.818 277,624.5C 289.451,618.189 302.284,612.856 315.5,608.5C 307.767,600.27 300.601,591.604 294,582.5C 287.784,572.704 281.618,563.038 275.5,553.5 Z"/></g>
<g><path style="opacity:0.86" fill="#000000" d="M 275.5,268.5 C 292.424,277.977 310.424,284.811 329.5,289C 306.961,310.712 289.294,335.879 276.5,364.5C 263.086,336.103 245.086,311.103 222.5,289.5C 241.457,285.411 259.124,278.411 275.5,268.5 Z M 275.5,276.5 C 263.283,283.635 250.283,289.135 236.5,293C 251.999,309.829 265.166,328.329 276,348.5C 286.834,328.329 300.001,309.829 315.5,293C 301.554,288.856 288.221,283.356 275.5,276.5 Z"/></g>
<g><path style="opacity:0.856" fill="#000000" d="M 275.5,537.5 C 276.376,537.369 277.043,537.702 277.5,538.5C 289.912,566.669 307.245,591.336 329.5,612.5C 310.929,616.801 293.262,623.468 276.5,632.5C 259.999,623.243 242.666,616.243 224.5,611.5C 246.456,590.255 263.456,565.589 275.5,537.5 Z M 275.5,553.5 C 266.179,573.966 253.512,592.133 237.5,608C 251.108,612.318 264.275,617.818 277,624.5C 289.451,618.189 302.284,612.856 315.5,608.5C 307.767,600.27 300.601,591.604 294,582.5C 287.784,572.704 281.618,563.038 275.5,553.5 Z"/></g>
<g><path style="opacity:0.87" fill="#000000" d="M 275.5,793.5 C 276.376,793.369 277.043,793.702 277.5,794.5C 283.389,805.775 287.722,817.609 290.5,830C 288.894,837.331 284.227,841.165 276.5,841.5C 269.272,840.727 264.605,836.894 262.5,830C 263.296,825.119 264.463,820.286 266,815.5C 269.454,808.262 272.621,800.928 275.5,793.5 Z M 275.5,810.5 C 272.812,816.411 270.812,822.578 269.5,829C 269.759,830.261 270.426,831.261 271.5,832C 276.882,835.928 280.882,834.928 283.5,829C 282.066,823.366 280.233,817.866 278,812.5C 277.583,811.244 276.75,810.577 275.5,810.5 Z"/></g>
</svg>
