<?xml version="1.0" encoding="UTF-8"?>
<!DOCTYPE svg PUBLIC "-//W3C//DTD SVG 1.1//EN" "http://www.w3.org/Graphics/SVG/1.1/DTD/svg11.dtd">
<svg xmlns="http://www.w3.org/2000/svg" version="1.1" width="1420px" height="338px" style="shape-rendering:geometricPrecision; text-rendering:geometricPrecision; image-rendering:optimizeQuality; fill-rule:evenodd; clip-rule:evenodd" xmlns:xlink="http://www.w3.org/1999/xlink">
<g><path style="opacity:1" fill="#030303" d="M 175.5,-0.5 C 261.167,-0.5 346.833,-0.5 432.5,-0.5C 504.101,5.26442 554.601,40.9311 584,106.5C 596.284,138.566 598.284,171.233 590,204.5C 587,214.833 584,225.167 581,235.5C 577.205,240.098 572.372,241.931 566.5,241C 549.861,234.935 534.694,226.435 521,215.5C 514.818,206.423 512.818,196.423 515,185.5C 521.36,146.392 508.527,115.225 476.5,92C 466.697,85.7678 456.03,81.7678 444.5,80C 354.841,78.417 265.174,78.0837 175.5,79C 133.46,76.4322 103.294,93.9322 85,131.5C 69.3437,174.375 78.5103,210.875 112.5,241C 129.991,253.938 149.657,259.605 171.5,258C 249.167,258.333 326.833,258.667 404.5,259C 414.998,260.332 423.498,265.165 430,273.5C 434.609,281.107 439.609,288.441 445,295.5C 455.189,306.721 465.022,318.221 474.5,330C 464.39,332.743 454.057,334.743 443.5,336C 428.328,336.169 413.328,336.669 398.5,337.5C 322.167,337.5 245.833,337.5 169.5,337.5C 97.7542,335.557 45.9209,302.557 14,238.5C 6.79848,221.349 1.96515,203.683 -0.5,185.5C -0.5,173.167 -0.5,160.833 -0.5,148.5C 3.05414,119.68 13.2208,93.3464 30,69.5C 34.0488,64.0496 38.5488,59.0496 43.5,54.5C 46.8333,51.8333 49.8333,48.8333 52.5,45.5C 76.391,22.8877 104.724,8.72105 137.5,3C 150.274,1.32043 162.94,0.153763 175.5,-0.5 Z"/></g>
<g><path style="opacity:1" fill="#030303" d="M 606.5,-0.5 C 685.5,-0.5 764.5,-0.5 843.5,-0.5C 915.759,4.70682 966.593,40.3735 996,106.5C 1012.17,150.597 1011.17,194.264 993,237.5C 988.129,243.51 982.296,244.676 975.5,241C 962.679,234.759 950.346,227.759 938.5,220C 930.201,213.735 926.201,205.401 926.5,195C 935.028,158.421 926.028,127.088 899.5,101C 884.098,88.4159 866.432,81.0826 846.5,79C 762.833,78.6667 679.167,78.3333 595.5,78C 589.104,76.3804 583.938,72.8804 580,67.5C 562.723,47.0535 544.89,27.0535 526.5,7.5C 552.964,1.4221 579.631,-1.24457 606.5,-0.5 Z"/></g>
<g><path style="opacity:1" fill="#030303" d="M 1023.5,-0.5 C 1096.83,-0.5 1170.17,-0.5 1243.5,-0.5C 1311.3,-0.856104 1362.8,27.8106 1398,85.5C 1409.5,106.22 1416.67,128.22 1419.5,151.5C 1419.5,162.833 1419.5,174.167 1419.5,185.5C 1410.21,250.288 1375.88,296.455 1316.5,324C 1298.07,331.514 1279.07,336.014 1259.5,337.5C 1242.17,337.5 1224.83,337.5 1207.5,337.5C 1166.5,336.167 1125.5,336.167 1084.5,337.5C 1051.83,337.5 1019.17,337.5 986.5,337.5C 917.211,331.944 867.377,297.944 837,235.5C 822.056,199.512 820.056,162.845 831,125.5C 833.536,117.559 835.869,109.559 838,101.5C 841.795,96.9021 846.628,95.0688 852.5,96C 869.431,101.544 884.597,110.044 898,121.5C 900.81,125.453 902.81,129.787 904,134.5C 903.225,149.488 902.559,164.488 902,179.5C 908.6,219.096 931.1,244.596 969.5,256C 981.125,257.194 992.792,257.861 1004.5,258C 1083.5,258.667 1162.5,258.667 1241.5,258C 1284.41,261.305 1315.25,243.805 1334,205.5C 1349.66,162.625 1340.49,126.125 1306.5,96C 1289,83.0599 1269.34,77.3932 1247.5,79C 1168.17,78.6667 1088.83,78.3333 1009.5,78C 1002.42,76.595 996.591,73.095 992,67.5C 986,60.1667 980,52.8333 974,45.5C 962.167,33 950.333,20.5 938.5,8C 950.37,5.026 962.37,2.69267 974.5,1C 991.005,0.831483 1007.34,0.331483 1023.5,-0.5 Z"/></g>
<g><path style="opacity:0.965" fill="#454545" d="M 52.5,45.5 C 49.8333,48.8333 46.8333,51.8333 43.5,54.5C 45.5,50.5 48.5,47.5 52.5,45.5 Z"/></g>
<g><path style="opacity:1" fill="#030303" d="M 812.5,337.5 C 733.833,337.5 655.167,337.5 576.5,337.5C 513.4,334.043 465.567,305.377 433,251.5C 407.002,201.906 404.669,151.239 426,99.5C 429.507,93.8338 434.341,92.3338 440.5,95C 454.476,101.318 467.809,108.651 480.5,117C 488.943,123.387 492.943,131.887 492.5,142.5C 485.086,173.944 491.253,202.277 511,227.5C 527.512,245.506 548.012,255.672 572.5,258C 656.877,258.011 741.21,258.677 825.5,260C 830.613,262.306 835.113,265.472 839,269.5C 844.333,276.167 849.667,282.833 855,289.5C 868.379,302.378 881.213,315.711 893.5,329.5C 866.686,335.532 839.686,338.199 812.5,337.5 Z"/></g>
</svg>
