<svg width="160" height="4020" viewBox="0 0 160 4020" fill="none" xmlns="http://www.w3.org/2000/svg">
<line x1="89.5" y1="-2.18557e-08" x2="89.5" y2="400" stroke="black"/>
<line x1="89.5" y1="1600" x2="89.5" y2="2000" stroke="black"/>
<line x1="89.5" y1="800" x2="89.5" y2="1200" stroke="black"/>
<line x1="89.5" y1="2400" x2="89.5" y2="2800" stroke="black"/>
<line x1="89.5" y1="3200" x2="89.5" y2="3600" stroke="black"/>
<line x1="89.5" y1="400" x2="89.5" y2="800" stroke="black"/>
<line x1="89.5" y1="2000" x2="89.5" y2="2400" stroke="black"/>
<line x1="89.5" y1="1200" x2="89.5" y2="1600" stroke="black"/>
<line x1="89.5" y1="2800" x2="89.5" y2="3200" stroke="black"/>
<line x1="89.5" y1="3600" x2="89.5" y2="4000" stroke="black"/>
<circle cx="89" cy="2000" r="12" transform="rotate(90 89 2000)" fill="#0D0D0D"/>
<circle cx="89" cy="1200" r="12" transform="rotate(90 89 1200)" fill="#0D0D0D"/>
<circle cx="89" cy="2800" r="12" transform="rotate(90 89 2800)" fill="#0D0D0D"/>
<circle cx="89" cy="3600" r="12" transform="rotate(90 89 3600)" fill="#0D0D0D"/>
<circle cx="90" cy="800" r="12" transform="rotate(90 90 800)" fill="#0D0D0D"/>
<circle cx="90" cy="2400" r="12" transform="rotate(90 90 2400)" fill="#0D0D0D"/>
<circle cx="90" cy="1600" r="12" transform="rotate(90 90 1600)" fill="#0D0D0D"/>
<circle cx="90" cy="3200" r="12" transform="rotate(90 90 3200)" fill="#0D0D0D"/>
<circle cx="90" cy="4000" r="12" transform="rotate(90 90 4000)" fill="#0D0D0D"/>
<circle cx="89" cy="2000" r="19.5" transform="rotate(90 89 2000)" stroke="#0D0D0D"/>
<circle cx="89" cy="1200" r="19.5" transform="rotate(90 89 1200)" stroke="#0D0D0D"/>
<circle cx="89" cy="2800" r="19.5" transform="rotate(90 89 2800)" stroke="#0D0D0D"/>
<circle cx="89" cy="3600" r="19.5" transform="rotate(90 89 3600)" stroke="#0D0D0D"/>
<circle cx="90" cy="800" r="19.5" transform="rotate(90 90 800)" stroke="#0D0D0D"/>
<circle cx="90" cy="2400" r="19.5" transform="rotate(90 90 2400)" stroke="#0D0D0D"/>
<circle cx="90" cy="1600" r="19.5" transform="rotate(90 90 1600)" stroke="#0D0D0D"/>
<circle cx="90" cy="3200" r="19.5" transform="rotate(90 90 3200)" stroke="#0D0D0D"/>
<circle cx="90" cy="4000" r="19.5" transform="rotate(90 90 4000)" stroke="#0D0D0D"/>
<circle cx="89" cy="400" r="12" transform="rotate(90 89 400)" fill="#0D0D0D"/>
<circle cx="89" cy="400" r="19.5" transform="rotate(90 89 400)" stroke="#0D0D0D"/>
<line x1="90" y1="400.5" x2="-4.37114e-08" y2="400.5" stroke="#0D0D0D"/>
<line x1="90" y1="2000.5" x2="20" y2="2000.5" stroke="#0D0D0D"/>
<line x1="90" y1="1200.5" x2="20" y2="1200.5" stroke="#0D0D0D"/>
<line x1="90" y1="2800.5" x2="20" y2="2800.5" stroke="#0D0D0D"/>
<line x1="90" y1="3600.5" x2="20" y2="3600.5" stroke="#0D0D0D"/>
<line x1="160" y1="800.5" x2="90" y2="800.5" stroke="#0D0D0D"/>
<line x1="160" y1="2400.5" x2="90" y2="2400.5" stroke="#0D0D0D"/>
<line x1="160" y1="1600.5" x2="90" y2="1600.5" stroke="#0D0D0D"/>
<line x1="160" y1="3200.5" x2="90" y2="3200.5" stroke="#0D0D0D"/>
<line x1="160" y1="4000.5" x2="90" y2="4000.5" stroke="#0D0D0D"/>
</svg>
