<svg width="41" height="60" viewBox="0 0 41 60" fill="none" xmlns="http://www.w3.org/2000/svg">
<g clip-path="url(#clip0_139_205)">
<path d="M19.7156 52.3262C18.5724 50.3288 17.433 48.3807 16.3588 46.3998C16.2432 46.1845 16.4483 45.7157 16.633 45.4458C19.3501 41.4547 22.0933 37.4782 24.8197 33.4926C26.7629 30.6543 26.8002 28.9178 24.7339 26.0649C21.7949 22.0009 18.7682 17.9952 15.7341 13.995C15.2623 13.3711 15.2082 12.9115 15.583 12.2165C16.549 10.4253 17.4125 8.57382 18.3692 6.64941C19.406 7.59794 20.3757 8.47349 21.338 9.36729C26.0797 13.7366 30.8165 18.1101 35.5483 22.4879C36.6189 23.5017 37.6318 24.5722 38.5824 25.6946C40.4025 27.8087 40.5834 30.087 39.0654 32.4218C38.3906 33.4395 37.6141 34.389 36.7474 35.2565C31.3343 40.7287 25.9026 46.1882 20.4522 51.6349C20.2377 51.8501 20.0084 52.0526 19.7156 52.3262Z" fill="#0D0D0D"/>
<path d="M15.0517 47.7783C16.2489 49.5459 17.3921 51.2076 18.4924 52.8967C18.5467 53.0178 18.5693 53.1503 18.5583 53.2821C18.5472 53.4139 18.5027 53.541 18.4289 53.6519C17.0098 55.0947 15.585 56.5357 14.0894 57.9001C13.5459 58.3523 12.9185 58.6979 12.2413 58.918C11.3294 59.2481 10.4361 59.0748 9.78158 58.3233C9.12701 57.5718 9.13634 56.6817 9.55966 55.8408C9.95251 55.0818 10.3987 54.3504 10.8949 53.6519C12.2413 51.7238 13.612 49.8122 15.0517 47.7783Z" fill="#0D0D0D"/>
<path d="M13.9197 11.596C12.1126 9.10251 10.3858 6.74945 8.69806 4.35079C8.4617 3.96067 8.31473 3.52502 8.26727 3.07393C8.1386 2.21479 8.32508 1.42314 9.07103 0.864971C9.81697 0.306803 10.6692 0.365173 11.4245 0.806601C12.1902 1.26484 12.9129 1.78858 13.584 2.37166C14.7029 3.32018 15.8013 4.31066 16.8699 5.3212C17.0564 5.5036 17.2261 5.94138 17.1291 6.11467C16.1202 7.90227 15.0554 9.66798 13.9197 11.596Z" fill="#0D0D0D"/>
</g>
<g clip-path="url(#clip1_139_205)">
<path d="M6.28968 41.8635C5.68802 40.7924 5.08832 39.7478 4.52297 38.6855C4.46212 38.5701 4.57008 38.3187 4.66725 38.174C6.09731 36.0338 7.5411 33.9015 8.97607 31.7643C9.9988 30.2423 10.0184 29.3111 8.93092 27.7813C7.38406 25.6021 5.79108 23.4541 4.19417 21.309C3.94585 20.9745 3.91738 20.728 4.11466 20.3554C4.62309 19.3948 5.07752 18.402 5.58104 17.3701C6.12675 17.8787 6.63714 18.3482 7.14359 18.8275C9.63924 21.1705 12.1323 23.5157 14.6227 25.8632C15.1862 26.4068 15.7193 26.9809 16.2196 27.5828C17.1775 28.7164 17.2727 29.9381 16.4738 31.1901C16.1186 31.7358 15.71 32.245 15.2538 32.7101C12.4048 35.6445 9.546 38.5721 6.67738 41.4927C6.56451 41.6082 6.44378 41.7167 6.28968 41.8635Z" fill="#0D0D0D"/>
<path d="M3.83481 39.4248C4.46493 40.3726 5.0666 41.2637 5.64569 42.1694C5.67427 42.2344 5.68619 42.3054 5.68037 42.3761C5.67454 42.4468 5.65116 42.5149 5.61231 42.5744C4.86539 43.3481 4.11552 44.1208 3.32835 44.8524C3.04229 45.0949 2.71205 45.2802 2.35568 45.3982C1.87572 45.5753 1.40558 45.4824 1.06107 45.0794C0.716559 44.6764 0.721467 44.1991 0.944269 43.7481C1.15103 43.3412 1.38585 42.949 1.64703 42.5744C2.35568 41.5405 3.07708 40.5154 3.83481 39.4248Z" fill="#0D0D0D"/>
<path d="M3.23909 20.0227C2.28801 18.6856 1.37913 17.4239 0.490869 16.1376C0.366473 15.9284 0.289117 15.6948 0.264141 15.4529C0.196417 14.9922 0.294568 14.5677 0.687171 14.2684C1.07977 13.9691 1.52832 14.0004 1.92583 14.2371C2.32884 14.4828 2.70919 14.7637 3.06242 15.0763C3.65132 15.585 4.22943 16.1161 4.79183 16.658C4.88998 16.7558 4.9793 16.9905 4.92826 17.0835C4.39727 18.042 3.83683 18.9889 3.23909 20.0227Z" fill="#0D0D0D"/>
</g>
<defs>
<clipPath id="clip0_139_205">
<rect width="32.788" height="59.5361" fill="white" transform="translate(7.76562)"/>
</clipPath>
<clipPath id="clip1_139_205">
<rect width="17.2569" height="31.9252" fill="white" transform="translate(0 13.8047)"/>
</clipPath>
</defs>
</svg>
