<svg width="8" height="13" viewBox="0 0 8 13" fill="none" xmlns="http://www.w3.org/2000/svg">
<path opacity="0.75" d="M0.167836 11.8196C0.935836 11.1956 1.81584 10.4036 2.80784 9.44355C3.79984 8.48355 4.69584 7.56355 5.49584 6.68355C5.19184 6.29955 4.83984 5.89955 4.43984 5.48355C4.05584 5.06755 3.51984 4.50755 2.83184 3.80355C2.15984 3.08355 1.64784 2.53955 1.29584 2.17155C0.943836 1.80355 0.647836 1.46755 0.407836 1.16355C0.455836 1.05155 0.551836 0.923553 0.695836 0.779552C0.839836 0.619553 0.983836 0.499553 1.12784 0.419553C1.35184 0.643553 1.57584 0.875553 1.79984 1.11555C2.02384 1.33955 2.25584 1.57955 2.49584 1.83555C2.86384 2.21955 3.24784 2.61955 3.64784 3.03555C4.04784 3.43555 4.44784 3.84355 4.84784 4.25955C5.24784 4.65955 5.63184 5.05955 5.99984 5.45955C6.36784 5.84355 6.70384 6.22755 7.00784 6.61155C6.55984 7.21955 6.06384 7.77955 5.51984 8.29155C4.99184 8.80355 4.47984 9.29955 3.98384 9.77955C3.50384 10.2596 2.99984 10.7316 2.47184 11.1956C1.95984 11.6436 1.46384 12.1156 0.983836 12.6116L0.959836 12.6356L0.599836 12.3236L0.167836 11.8196Z" fill="#0D0D0D"/>
</svg>
