<svg width="41" height="60" viewBox="0 0 41 60" fill="none" xmlns="http://www.w3.org/2000/svg">
<g clip-path="url(#clip0_139_219)">
<path d="M20.8381 7.20995C21.9813 9.20731 23.1207 11.1554 24.1949 13.1364C24.3105 13.3516 24.1054 13.8204 23.9207 14.0904C21.2036 18.0815 18.4604 22.058 15.734 26.0436C13.7908 28.8818 13.7535 30.6184 15.8198 33.4712C18.7588 37.5353 21.7855 41.5409 24.8196 45.5412C25.2914 46.165 25.3455 46.6247 24.9707 47.3196C24.0047 49.1109 23.1412 50.9623 22.1846 52.8867C21.1477 51.9382 20.178 51.0626 19.2157 50.1688C14.474 45.7996 9.73722 41.426 5.00544 37.0482C3.93479 36.0345 2.92189 34.964 1.97131 33.8415C0.151205 31.7274 -0.0296858 29.4491 1.48831 27.1143C2.1631 26.0967 2.93959 25.1471 3.80634 24.2797C9.21941 18.8074 14.6511 13.348 20.1015 7.90127C20.316 7.68603 20.5453 7.48356 20.8381 7.20995Z" fill="#0D0D0D"/>
<path d="M25.5023 11.7578C24.305 9.99028 23.1619 8.32854 22.0616 6.63944C22.0073 6.51831 21.9846 6.38585 21.9957 6.25402C22.0068 6.12219 22.0512 5.99512 22.125 5.88427C23.5442 4.44143 24.9689 3.0004 26.4645 1.63599C27.0081 1.18381 27.6355 0.838244 28.3126 0.618158C29.2245 0.287999 30.1178 0.461288 30.7724 1.21281C31.4269 1.96433 31.4176 2.85448 30.9943 3.69538C30.6014 4.45431 30.1553 5.18569 29.6591 5.88427C28.3126 7.81233 26.9419 9.72396 25.5023 11.7578Z" fill="#0D0D0D"/>
<path d="M26.6343 47.9401C28.4413 50.4336 30.1682 52.7867 31.8559 55.1853C32.0923 55.5755 32.2392 56.0111 32.2867 56.4622C32.4154 57.3213 32.2289 58.113 31.4829 58.6712C30.737 59.2293 29.8847 59.171 29.1295 58.7295C28.3638 58.2713 27.6411 57.7476 26.97 57.1645C25.851 56.216 24.7526 55.2255 23.6841 54.2149C23.4976 54.0325 23.3279 53.5947 23.4249 53.4215C24.4337 51.6339 25.4986 49.8682 26.6343 47.9401Z" fill="#0D0D0D"/>
</g>
<g clip-path="url(#clip1_139_219)">
<path d="M34.2645 17.6727C34.8662 18.7437 35.4659 19.7884 36.0312 20.8506C36.0921 20.966 35.9841 21.2174 35.8869 21.3622C34.4569 23.5023 33.0131 25.6346 31.5781 27.7719C30.5554 29.2938 30.5358 30.225 31.6233 31.7548C33.1701 33.9341 34.7631 36.082 36.36 38.2271C36.6084 38.5616 36.6368 38.8081 36.4395 39.1808C35.9311 40.1413 35.4767 41.1341 34.9732 42.166C34.4274 41.6574 33.9171 41.1879 33.4106 40.7086C30.915 38.3657 28.4219 36.0204 25.9315 33.6729C25.368 33.1293 24.8349 32.5553 24.3346 31.9534C23.3767 30.8197 23.2815 29.598 24.0804 28.346C24.4356 27.8003 24.8442 27.2912 25.3004 26.826C28.1494 23.8916 31.0082 20.9641 33.8768 18.0434C33.9897 17.928 34.1104 17.8194 34.2645 17.6727Z" fill="#0D0D0D"/>
<path d="M36.7191 20.1113C36.089 19.1635 35.4874 18.2724 34.9083 17.3667C34.8797 17.3017 34.8678 17.2307 34.8736 17.16C34.8794 17.0893 34.9028 17.0212 34.9416 16.9617C35.6886 16.188 36.4384 15.4153 37.2256 14.6837C37.5117 14.4412 37.8419 14.2559 38.1983 14.1379C38.6782 13.9608 39.1484 14.0538 39.4929 14.4568C39.8374 14.8598 39.8325 15.3371 39.6097 15.788C39.4029 16.195 39.1681 16.5871 38.9069 16.9617C38.1983 17.9956 37.4769 19.0207 36.7191 20.1113Z" fill="#0D0D0D"/>
<path d="M37.3149 39.5134C38.2659 40.8505 39.1748 42.1123 40.0631 43.3985C40.1875 43.6077 40.2648 43.8413 40.2898 44.0832C40.3575 44.5439 40.2594 44.9684 39.8668 45.2677C39.4742 45.567 39.0256 45.5357 38.6281 45.299C38.2251 45.0533 37.8448 44.7725 37.4915 44.4598C36.9026 43.9512 36.3245 43.42 35.7621 42.8781C35.664 42.7803 35.5747 42.5456 35.6257 42.4527C36.1567 41.4941 36.7171 40.5473 37.3149 39.5134Z" fill="#0D0D0D"/>
</g>
<defs>
<clipPath id="clip0_139_219">
<rect width="32.788" height="59.5361" fill="white" transform="translate(32.7881 59.5361) rotate(-180)"/>
</clipPath>
<clipPath id="clip1_139_219">
<rect width="17.2569" height="31.9252" fill="white" transform="translate(40.5537 45.7314) rotate(-180)"/>
</clipPath>
</defs>
</svg>
